<svg xmlns="http://www.w3.org/2000/svg" viewBox="-10.3 -9.3 44.6 24.6">
	<path d="M 0 0 M 8 7 L 8 1 M 18 -2 L 18 -2 M 12 15 L -10 6 L -5 -7 L 12 -9 L 12 -9 M 12 15 L 34 6 L 29 -7 L 12 -9 M -2 2 L 0 4 L -2 7 L -4 4 M -2 2 L -4 0 L -2 -3 L 0 0 M 3 7 L 1 2 M 3 7 L 5 2 M 3 -3 L 5 2 M 3 -3 L 1 2 M 6 -3 L 8 1 M 10 -3 L 8 1 M 13 2 L 15 7 L 17 4 M 13 2 L 15 -3 L 17 0 M 18 2 L 18 0 M 18 2 L 18 7 M 19 2 L 19 7 M 19 2 L 21 3 L 23 7 M 19 2 L 19 -3 M 19 2 L 23 0 L 19 -3 M 26 7 L 24 2 M 26 7 L 28 2 M 26 -3 L 28 2 M 26 -3 L 24 2" stroke="#FFFFFF" stroke-width="0.3" fill="none"/>
</svg>